<svg xmlns="http://www.w3.org/2000/svg" viewBox="0 0 51.44 36.43"><title>dashAsset 2</title><g id="Layer_2" data-name="Layer 2"><g id="Layer_2-2" data-name="Layer 2"><path d="M35,18.37h0a2.34,2.34,0,0,0-2,2.39,3.72,3.72,0,0,0,2.9,3.63,1.75,1.75,0,0,0,.46.05A2.38,2.38,0,0,0,37.69,24a2,2,0,0,0,.83-1.44,4.39,4.39,0,0,0-1.36-3.31A2.76,2.76,0,0,0,35,18.37Zm2,4.56a1.13,1.13,0,0,1-.85.19,2.43,2.43,0,0,1-1.87-2.39,1,1,0,0,1,.9-1.07,1.51,1.51,0,0,1,1.17.51,3.05,3.05,0,0,1,.95,2.25A.74.74,0,0,1,36.92,22.93Z"/><path d="M51.34,4a.64.64,0,0,0-.89-.21L43.19,8.31l-2.54,5.53c-.16-.12-.33-.22-.49-.32l1.47-5.23L46.32,1a.66.66,0,0,0-.2-.9.66.66,0,0,0-.9.2L40.48,7.67,39,12.94a8.59,8.59,0,0,0-7.77,1.2l-.13.1a6.73,6.73,0,0,0-1.21,1.35A18,18,0,0,0,18.31,12.8a39.1,39.1,0,0,0-8.17,1.4c-.62.18-1.21.34-2,.51-2.82.58-6.77,1.11-6.81,1.12L0,16l.93.93a21.58,21.58,0,0,0,4.71,3.41h0a15.61,15.61,0,0,0,7.55,7.93v1.52l-3.48,5.1a.67.67,0,0,0,.17.91.72.72,0,0,0,.37.11.65.65,0,0,0,.54-.29l3.7-5.43V28.82a17.89,17.89,0,0,0,6.18,1l.85,0c.8,0,1.55-.07,2.23-.12L25.58,36a.64.64,0,0,0,.62.47.57.57,0,0,0,.18,0,.64.64,0,0,0,.44-.8l-1.74-6a31.54,31.54,0,0,0,4.33-.69l1.49,3.4a.65.65,0,0,0,.59.39.86.86,0,0,0,.27-.05.67.67,0,0,0,.33-.86l-1.43-3.26a4.94,4.94,0,0,0,2.21-1.31l0-.05a11.34,11.34,0,0,0,7,2.92A5.51,5.51,0,0,0,43.38,29a6,6,0,0,0,1.76-4.2,13.05,13.05,0,0,0-2.91-9.57c-.18-.2-.36-.38-.54-.55l2.52-5.49,6.92-4.29A.64.64,0,0,0,51.34,4ZM2.87,16.92c1.43-.21,3.69-.56,5.5-.93.87-.18,1.51-.36,2.13-.54a37.71,37.71,0,0,1,7.94-1.35,16.87,16.87,0,0,1,10.77,2.6,7,7,0,0,0-.66,2.52,7.16,7.16,0,0,0,.14,2.07,33.86,33.86,0,0,0-4.49-.84c-1.7-.11-4.46,0-8.28.14l-3.84.14a11.54,11.54,0,0,1-5.62-1.44A20.6,20.6,0,0,1,2.87,16.92ZM24.71,28.33l-1.33.11-1.91.1a16.66,16.66,0,0,1-7-1.12l-1.3-.6a14.33,14.33,0,0,1-5.7-5.63,11.6,11.6,0,0,0,4.62.84L16,21.89c3.64-.14,6.51-.25,8.12-.14a33.93,33.93,0,0,1,5.09,1,6.81,6.81,0,0,0,1.1,1.74,19.38,19.38,0,0,0,1.65,1.8C31.64,26.72,30.35,27.82,24.71,28.33ZM43.85,24.7A4.91,4.91,0,0,1,42.58,28c-1.93,1.52-6.86,1.2-11.3-4.31a6,6,0,0,1,.66-8.48A7.18,7.18,0,0,1,39,14.38l.24.11a7.38,7.38,0,0,1,1.21.82l.06.06a6.57,6.57,0,0,1,.76.74A12,12,0,0,1,43.85,24.7Z"/></g></g></svg>