<svg xmlns="http://www.w3.org/2000/svg" viewBox="0 0 29.37 29.17"><defs><style>.cls-1,.cls-2,.cls-3{fill:none;}.cls-1{stroke:#5787ff;}.cls-1,.cls-10,.cls-11,.cls-12,.cls-2,.cls-3,.cls-4,.cls-5,.cls-6,.cls-7,.cls-8,.cls-9{stroke-miterlimit:10;}.cls-1,.cls-11{stroke-width:0.5px;}.cls-10,.cls-11,.cls-12,.cls-2,.cls-3,.cls-4,.cls-5,.cls-6,.cls-7,.cls-8,.cls-9{stroke:#000;}.cls-10,.cls-12,.cls-3,.cls-4,.cls-5,.cls-6,.cls-7,.cls-8,.cls-9{stroke-width:0.25px;}.cls-4{fill:#f4ba92;}.cls-5{fill:#f4f40f;}.cls-6{fill:#e0b220;}.cls-7{fill:#e5391c;}.cls-8{fill:#c4bf10;}.cls-9{fill:#a07c18;}.cls-10{fill:#aa2918;}.cls-11{fill:#5787ff;}.cls-12{fill:#bc9173;}</style></defs><g id="Layer_2" data-name="Layer 2"><g id="Layer_1-2" data-name="Layer 1"><path class="cls-1" d="M24.13,14.18a16.11,16.11,0,0,0-8.84-9.07"/><path class="cls-1" d="M26.54,13.39A18.63,18.63,0,0,0,16.28,2.79"/><path class="cls-1" d="M29.13,12.49A21.4,21.4,0,0,0,17.3.23"/><path class="cls-1" d="M24.13,14.18a16.11,16.11,0,0,0-8.84-9.07"/><path class="cls-1" d="M26.54,13.39A18.63,18.63,0,0,0,16.28,2.79"/><path class="cls-1" d="M29.13,12.49A21.4,21.4,0,0,0,17.3.23"/><path class="cls-2" d="M11.1,20.13v0h.09A.15.15,0,0,1,11.1,20.13Zm0-3.83v0a.15.15,0,0,1,.09,0Zm0,0v0a.15.15,0,0,1,.09,0Zm0,3.83v0h.09A.15.15,0,0,1,11.1,20.13Zm0-9.53h0Zm0,15.25v0h0Zm0-2.84h0Zm0-9.56h0Zm0,6.68v0h.09A.15.15,0,0,1,11.1,20.13Zm0-3.83v0a.15.15,0,0,1,.09,0Zm0,9.55v0h0Zm0-2.84h0Zm0-9.56h0Zm0,6.68v0h.09A.15.15,0,0,1,11.1,20.13Zm0-3.83v0a.15.15,0,0,1,.09,0Zm0-5.7h0Zm0,0h0Zm0,5.73a.15.15,0,0,1,.09,0H11.1Zm0,3.83h.09a.15.15,0,0,1-.09,0Zm0-6.71h0Zm0,9.57h0Zm0,2.85h0l0,0Zm0-15.27h0Zm0,5.7v0a.15.15,0,0,1,.09,0Zm0,3.83v0h.09A.15.15,0,0,1,11.1,20.13Zm0-6.68h0Zm0,9.56h0Zm0,2.84v0h0Zm0-9.55v0a.15.15,0,0,1,.09,0Zm0,3.83v0h.09A.15.15,0,0,1,11.1,20.13Zm0-6.68h0Zm0,9.56h0Zm0,0h0Zm0-9.56h0Zm0,6.68v0h.09A.15.15,0,0,1,11.1,20.13Zm0-3.83v0a.15.15,0,0,1,.09,0Zm0,0v0a.15.15,0,0,1,.09,0Zm0,3.83v0h.09A.15.15,0,0,1,11.1,20.13Zm0-6.68h0Zm0,9.56h0Zm0-2.88v0h.09A.15.15,0,0,1,11.1,20.13Zm0-3.83v0a.15.15,0,0,1,.09,0Zm0,0v0a.15.15,0,0,1,.09,0Zm0,3.83v0h.09A.15.15,0,0,1,11.1,20.13Z"/><path class="cls-3" d="M11.1,20.13v0h.09A.15.15,0,0,1,11.1,20.13Zm0-3.83v0a.15.15,0,0,1,.09,0Zm0,0v0a.15.15,0,0,1,.09,0Zm0,3.83v0h.09A.15.15,0,0,1,11.1,20.13Zm0-9.53h0Zm0,15.25v0h0Zm0-2.84h0Zm0-9.56h0Zm0,6.68v0h.09A.15.15,0,0,1,11.1,20.13Zm0-3.83v0a.15.15,0,0,1,.09,0Zm0,6.71h0Zm0-9.56h0Zm0,6.68v0h.09A.15.15,0,0,1,11.1,20.13Zm0-3.83v0a.15.15,0,0,1,.09,0Zm0,0v0a.15.15,0,0,1,.09,0Zm0,3.83v0h.09A.15.15,0,0,1,11.1,20.13Zm0-6.68h0Zm0,9.56h0Zm0-2.88v0h.09A.15.15,0,0,1,11.1,20.13Zm0-3.83v0a.15.15,0,0,1,.09,0Zm0,0v0a.15.15,0,0,1,.09,0Zm0,3.83v0h.09A.15.15,0,0,1,11.1,20.13Z"/><path class="cls-4" d="M19.48,18c0,9.93-8.38,10.9-8.38,10.9V25.87h.07s0,0,0,0c3.36-.05,6.07-3.45,6.07-7.63s-2.69-7.54-6-7.63H11.1V7.21S19.48,8.08,19.48,18Z"/><path class="cls-3" d="M11.1,23h0"/><path class="cls-3" d="M11.1,13.45h0"/><path class="cls-5" d="M12.66,18.23a1.79,1.79,0,0,1-1.47,1.92.15.15,0,0,1-.09,0v-3.8a.15.15,0,0,1,.09,0A1.8,1.8,0,0,1,12.66,18.23Z"/><path class="cls-6" d="M14.93,18.23c0,2.6-1.67,4.71-3.74,4.78H11.1V20.16h.09a1.79,1.79,0,0,0,1.47-1.92,1.8,1.8,0,0,0-1.47-1.92H11.1V13.46h.09C13.26,13.53,14.93,15.64,14.93,18.23Z"/><path class="cls-7" d="M17.26,18.23c0,4.18-2.71,7.58-6.07,7.63h-.06l0,0V23h.09c2.07-.07,3.74-2.18,3.74-4.78s-1.67-4.7-3.74-4.77c0,0,0,0,0,0H11.1V10.61h.14C14.57,10.69,17.26,14.08,17.26,18.23Z"/><path class="cls-3" d="M11.24,16.3h-.05"/><path class="cls-3" d="M11.24,20.16h-.05"/><path class="cls-3" d="M11.26,23h-.07"/><path class="cls-3" d="M11.26,13.45h-.07"/><path class="cls-8" d="M11.1,16.33v3.8c-.42-.14-.75-.93-.75-1.9S10.68,16.47,11.1,16.33Z"/><path class="cls-9" d="M11.1,13.46v2.87c-.42.14-.75.94-.75,1.9s.33,1.76.75,1.9V23c-1.14-.19-2-2.25-2-4.78S10,13.65,11.1,13.46Z"/><path class="cls-10" d="M11.1,10.61v2.85c-1.14.19-2,2.25-2,4.77s.9,4.59,2,4.78v2.84c-1.88-.15-3.37-3.5-3.37-7.62S9.22,10.77,11.1,10.61Z"/><path class="cls-3" d="M11.24,25.87h-.05"/><path class="cls-11" d="M11.1,28.92a10.86,10.86,0,0,1,0-21.71S6,10,6,18.07,11.1,28.92,11.1,28.92Z"/><path class="cls-11" d="M22,18.07A10.85,10.85,0,0,1,11.1,28.92s8.38-1,8.38-10.9S11.1,7.21,11.1,7.21A10.85,10.85,0,0,1,22,18.07Z"/><path class="cls-12" d="M11.1,7.21v3.4c-1.88.16-3.37,3.51-3.37,7.62s1.49,7.47,3.37,7.62v3.07S6,26.2,6,18.07,11.1,7.21,11.1,7.21Z"/></g></g></svg>