<svg xmlns="http://www.w3.org/2000/svg" viewBox="0 0 22.2 22.21"><defs><style>.cls-1,.cls-2{fill:none;}.cls-1,.cls-2,.cls-3{stroke:#000;stroke-miterlimit:10;}.cls-2{stroke-width:0.25px;}.cls-3{fill:#35e1ff;stroke-width:0.5px;}.cls-4{fill:#bc9173;}.cls-5{fill:#f4ba92;}.cls-6{fill:#c4bf10;}.cls-7{fill:#f4f40f;}.cls-8{fill:#e0b220;}.cls-9{fill:#a07c18;}.cls-10{fill:#aa2918;}.cls-11{fill:#e5391c;}</style></defs><g id="Layer_2" data-name="Layer 2"><g id="Layer_1-2" data-name="Layer 1"><path class="cls-1" d="M11.1,13.17v0h.09A.15.15,0,0,1,11.1,13.17Zm0-3.83v0a.15.15,0,0,1,.09,0Zm0,0v0a.15.15,0,0,1,.09,0Zm0,3.83v0h.09A.15.15,0,0,1,11.1,13.17Zm0-9.53h0Zm0,15.25v0h0Zm0-2.84h0Zm0-9.56h0Zm0,6.68v0h.09A.15.15,0,0,1,11.1,13.17Zm0-3.83v0a.15.15,0,0,1,.09,0Zm0,9.55v0h0Zm0-2.84h0Zm0-9.56h0Zm0,6.68v0h.09A.15.15,0,0,1,11.1,13.17Zm0-3.83v0a.15.15,0,0,1,.09,0Zm0-5.7h0Zm0,0h0Zm0,5.73a.15.15,0,0,1,.09,0H11.1Zm0,3.83h.09a.15.15,0,0,1-.09,0Zm0-6.71h0Zm0,9.57h0Zm0,2.85h0l0,0Zm0-15.27h0Zm0,5.7v0a.15.15,0,0,1,.09,0Zm0,3.83v0h.09A.15.15,0,0,1,11.1,13.17Zm0-6.68h0Zm0,9.56h0Zm0,2.84v0h0Zm0-9.55v0a.15.15,0,0,1,.09,0Zm0,3.83v0h.09A.15.15,0,0,1,11.1,13.17Zm0-6.68h0Zm0,9.56h0Zm0,0h0Zm0-9.56h0Zm0,6.68v0h.09A.15.15,0,0,1,11.1,13.17Zm0-3.83v0a.15.15,0,0,1,.09,0Zm0,0v0a.15.15,0,0,1,.09,0Zm0,3.83v0h.09A.15.15,0,0,1,11.1,13.17Zm0-6.68h0Zm0,9.56h0Zm0-2.88v0h.09A.15.15,0,0,1,11.1,13.17Zm0-3.83v0a.15.15,0,0,1,.09,0Zm0,0v0a.15.15,0,0,1,.09,0Zm0,3.83v0h.09A.15.15,0,0,1,11.1,13.17Z"/><path class="cls-2" d="M11.1,13.17v0h.09A.15.15,0,0,1,11.1,13.17Zm0-3.83v0a.15.15,0,0,1,.09,0Zm0,0v0a.15.15,0,0,1,.09,0Zm0,3.83v0h.09A.15.15,0,0,1,11.1,13.17Zm0-9.53h0Zm0,15.25v0h0Zm0-2.84h0Zm0-9.56h0Zm0,6.68v0h.09A.15.15,0,0,1,11.1,13.17Zm0-3.83v0a.15.15,0,0,1,.09,0Zm0,6.71h0Zm0-9.56h0Zm0,6.68v0h.09A.15.15,0,0,1,11.1,13.17Zm0-3.83v0a.15.15,0,0,1,.09,0Zm0,0v0a.15.15,0,0,1,.09,0Zm0,3.83v0h.09A.15.15,0,0,1,11.1,13.17Zm0-6.68h0Zm0,9.56h0Zm0-2.88v0h.09A.15.15,0,0,1,11.1,13.17Zm0-3.83v0a.15.15,0,0,1,.09,0Zm0,0v0a.15.15,0,0,1,.09,0Zm0,3.83v0h.09A.15.15,0,0,1,11.1,13.17Z"/><path class="cls-2" d="M11.1,16.06h0"/><path class="cls-2" d="M11.1,6.49h0"/><path class="cls-2" d="M11.24,9.34h-.05"/><path class="cls-2" d="M11.24,13.2h-.05"/><path class="cls-2" d="M11.26,16.06h-.07"/><path class="cls-2" d="M11.26,6.49h-.07"/><path class="cls-2" d="M11.24,18.91h-.05"/><path class="cls-3" d="M11.1,22A10.86,10.86,0,0,1,11.1.25S6,3,6,11.11,11.1,22,11.1,22Z"/><path class="cls-3" d="M22,11.11A10.85,10.85,0,0,1,11.1,22s8.38-1,8.38-10.9S11.1.25,11.1.25A10.85,10.85,0,0,1,22,11.11Z"/><path class="cls-4" d="M11.1.25v3.4c-1.88.16-3.37,3.51-3.37,7.62s1.49,7.47,3.37,7.62V22S6,19.24,6,11.11,11.1.25,11.1.25Z"/><path class="cls-5" d="M19.48,11.06C19.48,21,11.1,22,11.1,22V18.91h.07s0,0,0,0c3.36,0,6.07-3.45,6.07-7.63s-2.69-7.54-6-7.63H11.1V.25S19.48,1.12,19.48,11.06Z"/><path class="cls-6" d="M11.1,9.37v3.8c-.42-.14-.75-.93-.75-1.9S10.68,9.51,11.1,9.37Z"/><path class="cls-7" d="M12.66,11.27a1.79,1.79,0,0,1-1.47,1.92.15.15,0,0,1-.09,0V9.37a.15.15,0,0,1,.09,0A1.8,1.8,0,0,1,12.66,11.27Z"/><path class="cls-8" d="M14.93,11.27c0,2.6-1.67,4.71-3.74,4.78H11.1V13.2h.09a1.79,1.79,0,0,0,1.47-1.92,1.8,1.8,0,0,0-1.47-1.92H11.1V6.5h.09C13.26,6.57,14.93,8.68,14.93,11.27Z"/><path class="cls-9" d="M11.1,6.5V9.37c-.42.14-.75.94-.75,1.9s.33,1.76.75,1.9v2.88c-1.14-.19-2-2.25-2-4.78S10,6.69,11.1,6.5Z"/><path class="cls-10" d="M11.1,3.65V6.5c-1.14.19-2,2.25-2,4.77s.9,4.59,2,4.78v2.84c-1.88-.15-3.37-3.5-3.37-7.62S9.22,3.81,11.1,3.65Z"/><path class="cls-11" d="M17.26,11.27c0,4.18-2.71,7.58-6.07,7.63h-.06l0,0V16.06h.09c2.07-.07,3.74-2.18,3.74-4.78s-1.67-4.7-3.74-4.77H11.1V3.65h.14C14.57,3.73,17.26,7.12,17.26,11.27Z"/></g></g></svg>