<svg xmlns="http://www.w3.org/2000/svg" viewBox="0 0 31.15 22.7"><defs><style>.cls-1{fill:#35e1ff;}.cls-1,.cls-2,.cls-3,.cls-4{stroke:#000;stroke-miterlimit:10;}.cls-2{fill:#f59d52;}.cls-3{fill:#5787ff;}.cls-4{fill:none;}</style></defs><g id="Layer_2" data-name="Layer 2"><g id="Layer_1-2" data-name="Layer 1"><path class="cls-1" d="M25.12,7.49c-2.75,1.38-5.56,3.26-7.19,3.1-2.94-.28-4.22-5.35-7.06-6.16a15.08,15.08,0,0,0-4-.27A10.84,10.84,0,0,1,25.12,7.49Z"/><path class="cls-2" d="M25.8,10.54c-3.84,2.58-7,7.3-9.33,7.16-3.15-.19-5.38-8.06-7-9.78-.75-.8-2.59-1.09-4.34-1.16a10.31,10.31,0,0,1,1.72-2.6,15.08,15.08,0,0,1,4,.27c2.84.81,4.12,5.88,7.06,6.16,1.63.16,4.44-1.72,7.19-3.1A10.66,10.66,0,0,1,25.8,10.54Z"/><path class="cls-3" d="M25.83,11.35a10.86,10.86,0,0,1-21.71,0,10.68,10.68,0,0,1,1-4.59c1.75.07,3.59.36,4.34,1.16,1.61,1.72,3.84,9.59,7,9.78,2.28.14,5.49-4.58,9.33-7.16Q25.83,10.95,25.83,11.35Z"/><path class="cls-4" d="M25.12,7.49c2.18-1.1,4.32-1.89,5.79-1.07"/><path class="cls-4" d="M6.86,4.16c-3.21.08-6.79.57-6.79.57"/><path class="cls-4" d="M25.8,10.54a8.17,8.17,0,0,1,4.68-1.65"/><path class="cls-4" d="M1.24,6.85a29.54,29.54,0,0,1,3.9-.09"/></g></g></svg>