<svg xmlns="http://www.w3.org/2000/svg" viewBox="0 0 337.59 92.47"><defs><style>.cls-1{fill:#8c114e;}.cls-2{fill:#eb3a62;}.cls-3{fill:#313946;}</style></defs><g id="Layer_2" data-name="Layer 2"><g id="Layer_1-2" data-name="Layer 1"><polygon class="cls-1" points="47.98 65.43 59.32 65.72 61.12 20.13 49.44 18.9 47.98 65.43"/><polygon class="cls-1" points="29.14 64.87 33.15 26.75 44.78 26.75 40.17 65.43 29.14 64.87"/><path class="cls-2" d="M48,0a46.19,46.19,0,0,0-19,3.3l4.1,10.89A34.62,34.62,0,0,1,76.86,62.36L61.12,20.13,49.43,18.9,63.32,56.4,73.56,83.54A46.24,46.24,0,0,0,48,0ZM59.32,78.28A34.61,34.61,0,0,1,15.6,30.14L29.06,64.87h.08l11,.56-5.64-15-6.7-17.87L18.76,9.05A46.25,46.25,0,0,0,63.51,89.14Z"/><polygon class="cls-2" points="59.32 65.72 47.98 65.43 44.07 55.24 38.33 40.25 33.15 26.75 44.78 26.75 49.82 40.25 59.32 65.72"/><path class="cls-3" d="M131.07,29.25a19.79,19.79,0,0,1,9.25,2.12,16.28,16.28,0,0,1,6.56,6.11A16.73,16.73,0,0,1,140.4,61,19.84,19.84,0,0,1,131,63.21,19.62,19.62,0,0,1,121.67,61a16.42,16.42,0,0,1-8.9-14.74,16.72,16.72,0,0,1,2.35-8.56,16.27,16.27,0,0,1,6.47-6.22A19.8,19.8,0,0,1,131.07,29.25Zm-11.68,17a11.77,11.77,0,0,0,1.49,5.93A10.32,10.32,0,0,0,125,56.24a12.39,12.39,0,0,0,6,1.45,11.52,11.52,0,0,0,8.38-3.2,11,11,0,0,0,3.28-8.25,11.93,11.93,0,0,0-1.48-5.94,10.24,10.24,0,0,0-4.17-4.08,13.33,13.33,0,0,0-12.11,0,10.09,10.09,0,0,0-4.14,4.07A12.14,12.14,0,0,0,119.39,46.24Z"/><path class="cls-3" d="M166,40.22a9.84,9.84,0,0,1,7.64,3.18,11.74,11.74,0,0,1,2.9,8.27,12.75,12.75,0,0,1-1.36,6,10,10,0,0,1-3.87,4.1,11.06,11.06,0,0,1-5.69,1.47,11.65,11.65,0,0,1-5.19-1.3v12h-5.83V40.65h5.78v1.42A9.64,9.64,0,0,1,166,40.22Zm-5.57,17.42a8.21,8.21,0,0,0,4.08,1.26,5.46,5.46,0,0,0,4.4-2,7.57,7.57,0,0,0,1.66-5.07,8.49,8.49,0,0,0-1.48-5.31,5,5,0,0,0-4.21-1.92,5.69,5.69,0,0,0-2,.34,11.45,11.45,0,0,0-2.49,1.46Z"/><path class="cls-3" d="M191.08,40.22a9.89,9.89,0,0,1,7.72,3.13c1.9,2.08,2.85,5,2.85,8.65v.88H186a6.85,6.85,0,0,0,2.22,4.56,7.6,7.6,0,0,0,5.1,1.6,11.44,11.44,0,0,0,4-.72,17.75,17.75,0,0,0,4-2.2v4.34a15.92,15.92,0,0,1-9.43,2.75,11.91,11.91,0,0,1-8.55-3.15A11,11,0,0,1,180,51.67a11.4,11.4,0,0,1,3.07-8.25A10.58,10.58,0,0,1,191.08,40.22Zm5.09,9.12a6.44,6.44,0,0,0-1.47-3.78,4.36,4.36,0,0,0-3.39-1.36,4.85,4.85,0,0,0-3.54,1.31,6.35,6.35,0,0,0-1.69,3.83Z"/><path class="cls-3" d="M219,40.22a7.33,7.33,0,0,1,5.68,2.33,8.82,8.82,0,0,1,2.12,6.15V62.78H221V49.3a5.23,5.23,0,0,0-1-3.42,3.46,3.46,0,0,0-2.81-1.25,4.45,4.45,0,0,0-2.53.79,11.89,11.89,0,0,0-2.61,2.65V62.78h-5.83V40.65h5.83v3.1A10.31,10.31,0,0,1,215.36,41,8.27,8.27,0,0,1,219,40.22Z"/><path class="cls-3" d="M254.61,29.67v5h-15v8.69H254v5H239.61v9.41H255v5H233.21V29.67Z"/><path class="cls-3" d="M282.32,29.67v5h-15v8.69h14.36v5H267.32v9.41h15.33v5H260.92V29.67Z"/><path class="cls-3" d="M291.77,29.67,300,50.1l8.68-20.43h5.4l8.72,20.5L331,29.67h6.55L324,63.21H321.8L311.37,38.66,300.9,63.21h-2.09L285.16,29.67Z"/></g></g></svg>