<svg xmlns="http://www.w3.org/2000/svg" viewBox="0 0 196.42 40.07"><defs><style>.cls-1{fill:none;}.cls-1,.cls-2,.cls-3,.cls-4{stroke:#000;stroke-miterlimit:10;}.cls-2{fill:#35e1ff;}.cls-3{fill:#f59d52;}.cls-4{fill:#5787ff;}.cls-5,.cls-6{font-size:36px;}.cls-5{font-family:Montserrat-Regular, Montserrat;letter-spacing:-0.06em;}.cls-6{font-family:Montserrat-Medium, Montserrat;font-weight:500;letter-spacing:-0.05em;}.cls-7{letter-spacing:-0.06em;}</style></defs><g id="Layer_2" data-name="Layer 2"><g id="Layer_1-2" data-name="Layer 1"><path class="cls-1" d="M30.14,14.72a11.29,11.29,0,0,0-3.15.94"/><path class="cls-1" d="M.22,18.18A50.89,50.89,0,0,0,6,20.48"/><path class="cls-1" d="M27.83,17.54a8.15,8.15,0,0,1,5.27,1.78"/><path class="cls-1" d="M2.81,30.09A36.17,36.17,0,0,1,7.56,27"/><path class="cls-2" d="M27,15.66c-4.71,2-11,6.39-15.26,6.1A25.18,25.18,0,0,1,6,20.48a11.24,11.24,0,0,1,21-4.82Z"/><path class="cls-3" d="M27.83,17.54a11.22,11.22,0,0,0-1.36.12c-4.1.66-7.16,4.83-14.14,7.13A27.56,27.56,0,0,0,7.56,27a11.21,11.21,0,0,1-1.63-5.83c0-.22,0-.44,0-.66a25.18,25.18,0,0,0,5.78,1.28c4.22.29,10.55-4.11,15.26-6.1A11.81,11.81,0,0,1,27.83,17.54Z"/><path class="cls-4" d="M28.42,21.14A11.24,11.24,0,0,1,7.56,27a27.56,27.56,0,0,1,4.77-2.18c7-2.3,10-6.47,14.14-7.13a11.22,11.22,0,0,1,1.36-.12A11.27,11.27,0,0,1,28.42,21.14Z"/><text class="cls-5" transform="translate(38.09 30.6)">open</text><text class="cls-6" transform="translate(121.97 30.6)">e<tspan class="cls-7" x="20.23" y="0">e</tspan><tspan x="40.1" y="0">w</tspan></text></g></g></svg>