<svg xmlns="http://www.w3.org/2000/svg" viewBox="0 0 152.82 125.38"><defs><style>.cls-1{fill:none;stroke:#e42774;}.cls-1,.cls-4,.cls-5,.cls-6,.cls-7{stroke-miterlimit:10;}.cls-2{fill:#5787ff;}.cls-3{opacity:0.1;isolation:isolate;}.cls-4{fill:#3a3a3a;}.cls-4,.cls-5,.cls-6,.cls-7{stroke:#000;}.cls-5{fill:#515151;}.cls-5,.cls-7{stroke-width:0.25px;}.cls-6,.cls-7,.cls-8{fill:#fff;}</style></defs><g id="Layer_2" data-name="Layer 2"><g id="Layer_3" data-name="Layer 3"><path class="cls-1" d="M57.19,39.49a1.82,1.82,0,0,0-1.86,1.87c0,1.86.22,2.56,1.35,2.56s1.75.3,1.89-.62"/><path class="cls-2" d="M64.43,32.3h0c.48.2.76.59.64.89L48.61,70.85c-.13.29-.62.37-1.1.17h0c-.48-.19-.77-.59-.64-.88L63.33,32.48C63.45,32.19,64,32.11,64.43,32.3Z"/><path class="cls-2" d="M67.22,38.83h0c.48.2.76.59.64.88L55.4,68.21c-.12.29-.62.37-1.1.17h0c-.48-.19-.76-.59-.64-.88L66.12,39C66.24,38.72,66.74,38.64,67.22,38.83Z"/><path class="cls-2" d="M68.66,48.41h0c.48.2.77.59.64.89L63.53,62.5c-.13.3-.62.38-1.1.18h0c-.48-.19-.77-.59-.64-.88l5.77-13.21C67.69,48.3,68.18,48.22,68.66,48.41Z"/><path class="cls-2" d="M75.32,46.92h0c.48.19.77.59.64.88L67.07,68.14c-.12.29-.62.37-1.1.18h0c-.48-.2-.76-.59-.64-.89l8.89-20.34C74.35,46.8,74.84,46.72,75.32,46.92Z"/><path class="cls-2" d="M81.9,44.78h0c.48.2.77.59.64.89L70.09,74.16c-.13.29-.62.37-1.11.18h0c-.48-.2-.76-.59-.63-.89L80.8,45C80.93,44.67,81.42,44.59,81.9,44.78Z"/><path class="cls-2" d="M87.8,44.18h0c.48.19.76.59.64.88L73.76,78.65c-.13.29-.62.37-1.1.17h0c-.48-.19-.77-.59-.64-.88L86.7,44.35C86.82,44.06,87.32,44,87.8,44.18Z"/><path class="cls-2" d="M95.6,39.24h0c.48.2.76.59.63.88L75.55,87.47c-.13.29-.63.37-1.11.17h0c-.48-.19-.76-.59-.63-.88L94.49,39.42C94.62,39.13,95.12,39.05,95.6,39.24Z"/><path class="cls-2" d="M97.49,47.81h0c.48.19.76.59.64.88L83.22,82.78c-.12.3-.62.38-1.1.18h0c-.48-.19-.76-.59-.64-.88L96.39,48C96.51,47.69,97,47.61,97.49,47.81Z"/><path class="cls-2" d="M101.05,52.55h0c.48.19.76.59.64.88L89.23,81.92c-.12.29-.62.37-1.1.18h0c-.48-.2-.76-.59-.64-.88L100,52.72C100.07,52.43,100.57,52.35,101.05,52.55Z"/><ellipse class="cls-3" cx="76.41" cy="87.78" rx="34.09" ry="78.01" transform="translate(-26.35 142.42) rotate(-76.96)"/></g><g id="Layer_2-2" data-name="Layer 2"><path class="cls-4" d="M46.82,18.57a7.41,7.41,0,0,0-1,.77A2,2,0,0,0,45,20.92l.61,50.42A3.58,3.58,0,0,0,46,73.19a20,20,0,0,0,2.32,3.3l36,22.85s.17.17,1.07.11A4.13,4.13,0,0,0,87,99l13-6.84a7.56,7.56,0,0,0,1.55-1.56,5.77,5.77,0,0,0,.88-2.15l.47-52a7,7,0,0,0-.74-3.05,7.12,7.12,0,0,0-3-2.76l-35.66-17a2.92,2.92,0,0,0-.86-.25,9.11,9.11,0,0,0-1,.11Z"/><path class="cls-5" d="M48.09,20.56a2.85,2.85,0,0,0-1.35,0c-1.2.35-1.2,1.17-1.2,1.17l.93,49.76a5.61,5.61,0,0,0,1.07,2.38A20.15,20.15,0,0,0,49,75.65L83.78,97.44a1,1,0,0,0,.71.18c.47,0,1.33-1,1.33-1L86,42.77A4.85,4.85,0,0,0,85.07,40a15.55,15.55,0,0,0-2.19-2Z"/><ellipse cx="91.63" cy="48.73" rx="0.46" ry="0.42" transform="translate(-12.03 43.65) rotate(-25.2)"/><ellipse cx="93.5" cy="49.73" rx="0.46" ry="0.42" transform="translate(-12.27 44.54) rotate(-25.2)"/><ellipse cx="95.47" cy="47.09" rx="0.46" ry="0.42" transform="translate(-10.96 45.13) rotate(-25.2)"/><ellipse cx="91.63" cy="52.27" rx="0.46" ry="0.42" transform="translate(-13.53 43.99) rotate(-25.2)"/><ellipse cx="93.5" cy="53.26" rx="0.46" ry="0.42" transform="translate(-13.78 44.88) rotate(-25.2)"/><ellipse cx="95.47" cy="50.63" rx="0.46" ry="0.42" transform="translate(-12.47 45.47) rotate(-25.2)"/><ellipse cx="91.63" cy="55.89" rx="0.46" ry="0.42" transform="translate(-15.07 44.33) rotate(-25.2)"/><ellipse cx="93.5" cy="56.88" rx="0.46" ry="0.42" transform="translate(-15.32 45.22) rotate(-25.2)"/><ellipse cx="95.47" cy="54.24" rx="0.46" ry="0.42" transform="translate(-14.01 45.81) rotate(-25.2)"/><ellipse cx="91.63" cy="59.42" rx="0.46" ry="0.42" transform="translate(-16.58 44.67) rotate(-25.2)"/><ellipse cx="93.5" cy="60.42" rx="0.46" ry="0.42" transform="translate(-16.83 45.56) rotate(-25.2)"/><ellipse cx="95.47" cy="57.78" rx="0.46" ry="0.42" transform="translate(-15.52 46.15) rotate(-25.2)"/><ellipse cx="91.63" cy="63.01" rx="0.46" ry="0.42" transform="translate(-18.11 45.01) rotate(-25.2)"/><ellipse cx="93.5" cy="64" rx="0.46" ry="0.42" transform="translate(-18.35 45.9) rotate(-25.2)"/><ellipse cx="95.47" cy="61.36" rx="0.46" ry="0.42" transform="translate(-17.04 46.49) rotate(-25.2)"/><ellipse cx="91.63" cy="66.54" rx="0.46" ry="0.42" transform="translate(-19.61 45.35) rotate(-25.2)"/><ellipse cx="93.5" cy="67.54" rx="0.46" ry="0.42" transform="translate(-19.86 46.24) rotate(-25.2)"/><ellipse cx="95.47" cy="64.9" rx="0.46" ry="0.42" transform="translate(-18.55 46.83) rotate(-25.2)"/><ellipse cx="91.63" cy="70.16" rx="0.46" ry="0.42" transform="translate(-21.15 45.69) rotate(-25.2)"/><ellipse cx="93.5" cy="71.15" rx="0.46" ry="0.42" transform="translate(-21.4 46.58) rotate(-25.2)"/><ellipse cx="95.47" cy="68.52" rx="0.46" ry="0.42" transform="translate(-20.09 47.17) rotate(-25.2)"/><ellipse cx="91.63" cy="73.7" rx="0.46" ry="0.42" transform="translate(-22.66 46.03) rotate(-25.2)"/><ellipse cx="93.5" cy="74.69" rx="0.46" ry="0.42" transform="translate(-22.9 46.92) rotate(-25.2)"/><ellipse cx="95.47" cy="72.05" rx="0.46" ry="0.42" transform="translate(-21.59 47.51) rotate(-25.2)"/><ellipse cx="91.63" cy="77.01" rx="0.46" ry="0.42" transform="translate(-24.07 46.34) rotate(-25.2)"/><ellipse cx="95.47" cy="75.37" rx="0.46" ry="0.42" transform="translate(-23 47.82) rotate(-25.2)"/><path class="cls-6" d="M94,31.85V3.39S93.81.5,91.33.5s-2.66,2.78-2.66,2.78V31"/><path class="cls-7" d="M88.72,30.85s1.18,1.79,2.37,2A3,3,0,0,0,94,31.69"/></g><g id="Layer_5" data-name="Layer 5"><g id="Layer_2-3" data-name="Layer 2"><g id="Layer_2-2-2" data-name="Layer 2-2"><path class="cls-8" d="M68.68,58.12h0c-.49-.09-.87.33-.93,1a3,3,0,0,0,1,2.51c.08,0,.12.11.21.08a.72.72,0,0,0,.54,0,.77.77,0,0,0,.39-.65A4.15,4.15,0,0,0,69.48,59,1.37,1.37,0,0,0,68.68,58.12ZM69.25,61c-.09.07-.25,0-.33,0a2,2,0,0,1-.64-1.66c0-.28.21-.5.42-.47a1.1,1.1,0,0,1,.46.49,2.79,2.79,0,0,1,.28,1.46.8.8,0,0,1-.19.21Z"/><path class="cls-8" d="M76,52.84c-.07-.2-.22-.33-.36-.26h0l-3.16,1.27L71.17,56.5c-.08-.09-.12-.16-.19-.25l.87-2.66,2.26-3.28a.51.51,0,0,0,0-.54.22.22,0,0,0-.38,0l-2.26,3.34-.87,2.65a2.76,2.76,0,0,0-3.2-.65l0,0a1.56,1.56,0,0,0-.56.58,8.59,8.59,0,0,0-4.51-3.54,11.49,11.49,0,0,0-3.37-.62,6.73,6.73,0,0,1-.83-.06c-1.15-.14-2.79-.54-2.79-.54l-.53-.11.32.66a15.68,15.68,0,0,0,1.71,2.7h0a12.37,12.37,0,0,0,2.65,5.72l-.08.83L57.68,63a.51.51,0,0,0,0,.54c0,.07.07.09.16.12a.15.15,0,0,0,.21-.08l1.76-2.39.08-.78A7.83,7.83,0,0,0,62.36,62l.36.16c.32.13.61.2.89.32l.4,3.83a.44.44,0,0,0,.21.38l.08,0c.13,0,.22-.14.2-.38h0l-.37-3.64a8.8,8.8,0,0,0,1.76.34l.43,2.16a.46.46,0,0,0,.22.32l.12,0c.13-.06.23-.19.17-.45L66.44,63a1.37,1.37,0,0,0,1-.36h0a6.36,6.36,0,0,0,2.66,2.82,1.53,1.53,0,0,0,1.47-.08,3.26,3.26,0,0,0,.94-2,11.46,11.46,0,0,0-.68-5.86,2.64,2.64,0,0,1-.17-.42l1.29-2.66,3-1.22c.08,0,.14-.18.08-.38Zm-20.11-1c.57.13,1.52.29,2.26.43.37,0,.62,0,.86.08a13,13,0,0,1,3.25.56,7.87,7.87,0,0,1,4.21,3.3A3.85,3.85,0,0,0,66,57.46,5.77,5.77,0,0,0,66,58.65a10.13,10.13,0,0,0-1.77-1.21c-.68-.35-1.81-.77-3.34-1.36l-1.53-.59a5.92,5.92,0,0,1-2.18-1.74A21.72,21.72,0,0,1,55.86,51.81ZM64,61.9l-.52-.16-.77-.27A7.26,7.26,0,0,1,60,59.66l-.49-.56a11,11,0,0,1-2-4.1,4.65,4.65,0,0,0,1.8,1.23l1.58.61a29.17,29.17,0,0,1,3.26,1.32,13.39,13.39,0,0,1,2,1.43,5,5,0,0,0,.36,1.14c.17.42.38.86.55,1.28C66.89,62.18,66.35,62.59,64,61.9Zm7.86,1.24a2.66,2.66,0,0,1-.69,1.63c-.84.51-2.83-.51-4.32-4.33-.75-1.78-.44-3.85.68-4.66h0a2.36,2.36,0,0,1,2.89.77l.08.09a6.1,6.1,0,0,1,.44.65l0,.07c.11.16.18.37.29.53A9.94,9.94,0,0,1,71.89,63.14Z"/></g></g></g></g></svg>