<svg xmlns="http://www.w3.org/2000/svg" viewBox="0 0 145.06 123.89"><defs><style>.cls-1{opacity:0.1;isolation:isolate;}.cls-2{fill:#3a3a3a;stroke:#000;stroke-miterlimit:10;}.cls-3{fill:#515151;}.cls-4{fill:#e42774;}.cls-5{fill:#fff;}</style></defs><g id="Layer_2" data-name="Layer 2"><g id="Layer_4" data-name="Layer 4"><path class="cls-1" d="M145,77.58c2,21.47-28.78,41.94-68.79,45.71S2.13,112.73.09,91.27A14.28,14.28,0,0,1,0,89.81C-.53,68.22,31.51,48.3,71.57,45.32,110.57,42.42,143,56.67,145,77.58Z"/></g><g id="Layer_3" data-name="Layer 3"><path class="cls-2" d="M35.54.5H74.17a8.23,8.23,0,0,1,8,6.41L101.71,93.5a6.64,6.64,0,0,1-5,7.93,6.15,6.15,0,0,1-1.13.16l-39.72,2a8.76,8.76,0,0,1-9.06-7.19L35.71,35.13l-.83.23-2.12-11.6.85-.21L30.52,6.46A5.06,5.06,0,0,1,34.6.58,4.9,4.9,0,0,1,35.54.5Z"/><path class="cls-3" d="M69.09,2.37H73.6a5.67,5.67,0,0,1,5.54,4.46L97.88,92.72A3.51,3.51,0,0,1,95.2,96.9a5.06,5.06,0,0,1-.52.08L55.09,99.57a4.55,4.55,0,0,1-4.78-3.74l-16-88.77a4,4,0,0,1,3.22-4.63,4.14,4.14,0,0,1,.7-.06h4.28a1.88,1.88,0,0,1,1.82,1.39h0A1.65,1.65,0,0,0,45.94,5H66.26a2.84,2.84,0,0,0,2.83-2.62Z"/><path class="cls-1" d="M55.86,43.84a9.59,9.59,0,0,0,19.17,0c0-.12,0-.24,0-.36a9.58,9.58,0,0,0-19.16.36Z"/><path class="cls-4" d="M56.77,47.57v.36A9.59,9.59,0,0,0,75,43.84c0-.12,0-.24,0-.36a9.58,9.58,0,0,0-18.25,4.09Z"/><path class="cls-5" d="M67.09,46.76l-1.7.22-.9-4.17-.37-2.23,2.6-.34.2,2.26Zm-.35,4A1.59,1.59,0,1,1,68.05,49,1.52,1.52,0,0,1,66.74,50.75Z"/></g><g id="Layer_5" data-name="Layer 5"><g id="Layer_2-2" data-name="Layer 2"><g id="Layer_2-2-2" data-name="Layer 2-2"><path class="cls-5" d="M62.77,12.65h0a.45.45,0,0,0-.41.56,1.17,1.17,0,0,0,1,.8c.05,0,.08,0,.13,0a.68.68,0,0,0,.33-.1.3.3,0,0,0,.14-.33,1.31,1.31,0,0,0-.54-.74A.84.84,0,0,0,62.77,12.65Zm.78,1a.33.33,0,0,1-.21.05.81.81,0,0,1-.64-.53.23.23,0,0,1,.19-.26.66.66,0,0,1,.35.11.92.92,0,0,1,.39.51.41.41,0,0,1-.08.12Z"/><path class="cls-5" d="M66.41,9.23a.2.2,0,0,0-.25,0h0l-1.73,1.08L64,11.55l-.15-.06L64,10.28l.88-1.7a.16.16,0,0,0-.1-.21.18.18,0,0,0-.23.05l-.88,1.73-.13,1.21a2.49,2.49,0,0,0-2,.33l0,0a.73.73,0,0,0-.25.33A6.22,6.22,0,0,0,58,11.49a10.64,10.64,0,0,0-2.14.38c-.15.05-.3.08-.51.13-.72.16-1.77.3-1.77.3l-.34.06.29.2A7.82,7.82,0,0,0,55,13.3h0a5.11,5.11,0,0,0,2.45,1.75l.08.35-.68,1.19a.17.17,0,0,0,.1.21.22.22,0,0,0,.12,0,.15.15,0,0,0,.12-.08l.71-1.26-.07-.32a6.29,6.29,0,0,0,1.72.18h.24c.22,0,.4,0,.59,0l.81,1.43a.24.24,0,0,0,.19.11h0a.11.11,0,0,0,.07-.18h0l-.77-1.36a9.3,9.3,0,0,0,1.12-.2l.58.77a.23.23,0,0,0,.18.09h.08a.13.13,0,0,0,0-.21L62.14,15a1.1,1.1,0,0,0,.52-.31h0a4,4,0,0,0,2,.61,1.41,1.41,0,0,0,.88-.3,1.17,1.17,0,0,0,.27-1,3.45,3.45,0,0,0-1.28-2.17.85.85,0,0,1-.17-.14l.39-1.28,1.63-1c.06,0,.06-.1,0-.16ZM54.06,12.54c.36,0,1-.16,1.43-.25l.54-.13a12.77,12.77,0,0,1,2-.38,5.6,5.6,0,0,1,3,.52,1.4,1.4,0,0,0,0,.58,1.43,1.43,0,0,0,.13.48A7.75,7.75,0,0,0,60,13.21c-.46,0-1.21,0-2.23.08l-1,.05a4.08,4.08,0,0,1-1.58-.27A10.48,10.48,0,0,1,54.06,12.54ZM60.51,15l-.34,0-.51,0a5.58,5.58,0,0,1-1.94-.2l-.38-.13a4.68,4.68,0,0,1-1.82-1.24,3.31,3.31,0,0,0,1.28.15l1-.05A21.59,21.59,0,0,1,60,13.51a10.26,10.26,0,0,1,1.42.19,2,2,0,0,0,.38.38l.53.4C62.29,14.57,62,14.83,60.51,15Zm5-1a.91.91,0,0,1-.18.77c-.43.36-1.8.33-3.26-.9a1.25,1.25,0,0,1-.28-2h0a2.09,2.09,0,0,1,1.87-.24l.05,0a2.1,2.1,0,0,1,.37.18l0,0c.09,0,.16.11.25.15A3,3,0,0,1,65.47,14Z"/></g></g></g></g></svg>