<svg xmlns="http://www.w3.org/2000/svg" viewBox="0 0 198.38 128.37"><defs><style>.cls-1{opacity:0.1;isolation:isolate;}.cls-2{fill:#3a3a3a;stroke:#000;}.cls-10,.cls-2,.cls-7,.cls-8,.cls-9{stroke-miterlimit:10;}.cls-3{fill:#515151;}.cls-4{fill:#f59d52;}.cls-5{fill:#35e1ff;}.cls-6{fill:#5787ff;}.cls-10,.cls-7,.cls-8,.cls-9{fill:none;stroke:#fff;}.cls-8{stroke-dasharray:2.06 2.06;}.cls-9{stroke-dasharray:1.99 1.99;}.cls-10{stroke-dasharray:2;}.cls-11{fill:#e42774;}.cls-12{fill:#fff;}</style></defs><g id="Layer_2" data-name="Layer 2"><g id="Layer_4" data-name="Layer 4"><path class="cls-1" d="M198.37,89.07c.73,19.52-43.09,37-97.87,39.1S.77,116.12,0,96.61a11.63,11.63,0,0,1,0-1.32c1.31-19.58,46.76-36.55,101.52-37.9C154.88,56.07,197.65,70.07,198.37,89.07Z"/></g><g id="Layer_3" data-name="Layer 3"><path class="cls-2" d="M31.77,78.43c.19-1.19,0-71.87,0-71.87S31.77.5,36.7.5H164s5.11.82,5.11,5.12V78.43Z"/><polyline class="cls-2" points="31.77 78.43 14.34 89.81 182.09 89.81 169.14 78.43"/><polyline class="cls-2" points="14.34 89.81 15.83 92.71 179.94 92.71 182.09 89.81"/><rect class="cls-3" x="35.31" y="8.77" width="90.95" height="64.4"/><rect class="cls-3" x="129.73" y="8.77" width="35.85" height="37.96"/><rect class="cls-3" x="129.73" y="49.95" width="35.85" height="23.22"/><rect class="cls-4" x="40.84" y="25.82" width="22.48" height="8.72" rx="1.2"/><rect class="cls-5" x="64.9" y="42.37" width="22.48" height="8.72" rx="1.2"/><rect class="cls-6" x="90.67" y="27.75" width="22.48" height="8.72" rx="1.2"/><path d="M123.2,58a.45.45,0,0,1,.45.45v6.31a.45.45,0,0,1-.45.45H103.11a.45.45,0,0,1-.45-.45V58.41a.45.45,0,0,1,.45-.45H123.2m0-.75H103.11a1.2,1.2,0,0,0-1.2,1.2v6.31a1.2,1.2,0,0,0,1.2,1.2H123.2a1.2,1.2,0,0,0,1.2-1.2V58.41a1.2,1.2,0,0,0-1.2-1.2Z"/><path class="cls-7" d="M48.54,34.54s0,.37.13,1"/><path class="cls-8" d="M49,37.56A22.26,22.26,0,0,0,51.29,44c2.2,3.76,8.38,3.79,11.6,3.53"/><path class="cls-7" d="M63.91,47.41c.62-.07,1-.14,1-.14"/><path class="cls-7" d="M90.55,30.32l-1,.13"/><path class="cls-9" d="M87.61,30.77A23.51,23.51,0,0,0,82,32.48C78.91,34,78.74,38,79,40.43"/><path class="cls-7" d="M79.09,41.42c.09.61.18,1,.18,1"/><path class="cls-10" d="M100.08,36.47s10.14,3.7,10.7,8.91.86,11.83.86,11.83"/><line class="cls-7" x1="133.96" y1="15.47" x2="160.74" y2="15.47"/><line class="cls-7" x1="133.96" y1="19.64" x2="160.74" y2="19.64"/><line class="cls-7" x1="133.96" y1="23.81" x2="160.74" y2="23.81"/><line class="cls-7" x1="133.96" y1="28.36" x2="160.74" y2="28.36"/><line class="cls-7" x1="150.64" y1="69.66" x2="160.74" y2="69.66"/><path class="cls-11" d="M113.15,63.06a1.5,1.5,0,0,0,0-3,1.5,1.5,0,0,0,0,3Z"/></g><g id="Layer_5" data-name="Layer 5"><g id="Layer_2-2" data-name="Layer 2"><g id="Layer_2-2-2" data-name="Layer 2-2"><path class="cls-12" d="M151.05,59.74h0a.57.57,0,0,0-.49.58.92.92,0,0,0,.71.89s.08,0,.12,0a.64.64,0,0,0,.32-.1.4.4,0,0,0,.2-.34,1.14,1.14,0,0,0-.34-.81A.59.59,0,0,0,151.05,59.74Zm.49,1.1a.29.29,0,0,1-.19,0,.63.63,0,0,1-.47-.59.29.29,0,0,1,.22-.27.45.45,0,0,1,.29.12.81.81,0,0,1,.25.57.31.31,0,0,1-.1.12Z"/><path class="cls-12" d="M155.05,56.2a.16.16,0,0,0-.22-.05h0L153,57.26l-.61,1.35-.13-.08.37-1.27,1.15-1.8a.16.16,0,0,0,0-.22.17.17,0,0,0-.23,0l-1.15,1.82L152,58.39a2.11,2.11,0,0,0-1.91.29l0,0a1,1,0,0,0-.29.35,4.45,4.45,0,0,0-2.85-.69,9.71,9.71,0,0,0-2,.34c-.15,0-.3.08-.49.13-.69.14-1.67.27-1.67.27l-.32,0,.22.22a5.52,5.52,0,0,0,1.15.83h0a3.77,3.77,0,0,0,1.87,1.94v.37l-.86,1.25a.16.16,0,0,0,0,.22s.05,0,.1,0a.13.13,0,0,0,.12-.08l.91-1.32v-.35a4.41,4.41,0,0,0,1.52.25h.22c.2,0,.37,0,.54,0l.44,1.55a.17.17,0,0,0,.15.12h.05A.15.15,0,0,0,149,64h0l-.42-1.48a6.17,6.17,0,0,0,1.06-.17l.36.84a.18.18,0,0,0,.15.1h.08a.17.17,0,0,0,.07-.23l-.34-.81a1.23,1.23,0,0,0,.54-.31h0a2.82,2.82,0,0,0,1.71.71,1.33,1.33,0,0,0,.86-.3,1.56,1.56,0,0,0,.44-1,3.25,3.25,0,0,0-.71-2.35.53.53,0,0,1-.12-.15l.61-1.35,1.7-1.06c.05,0,.07-.1,0-.17Zm-11.88,3.17,1.35-.22L145,59a11,11,0,0,1,1.94-.34,4,4,0,0,1,2.65.64,1.59,1.59,0,0,0-.17.61,1.82,1.82,0,0,0,0,.52,6.22,6.22,0,0,0-1.1-.2c-.42,0-1.11,0-2,0l-.93,0A2.94,2.94,0,0,1,144,60,8.19,8.19,0,0,1,143.17,59.37Zm5.35,2.8-.32,0-.46,0a3.87,3.87,0,0,1-1.72-.27l-.32-.14a3.45,3.45,0,0,1-1.4-1.38,2.6,2.6,0,0,0,1.13.2l1,0a19.6,19.6,0,0,1,2,0,7.09,7.09,0,0,1,1.25.25,1.33,1.33,0,0,0,.27.41c.12.15.27.3.39.44C150.22,61.77,149.92,62,148.52,62.17Zm4.69-.89a1.21,1.21,0,0,1-.32.81c-.46.37-1.69.3-2.77-1.05a1.48,1.48,0,0,1,.15-2.09h0a1.77,1.77,0,0,1,1.74-.2l.05,0a2.4,2.4,0,0,1,.29.19l0,0c.07,0,.12.12.19.17A2.88,2.88,0,0,1,153.21,61.28Z"/></g></g></g></g></svg>