<svg xmlns="http://www.w3.org/2000/svg" viewBox="0 0 182.05 45.87"><defs><style>.cls-1{fill:#6d4424;}.cls-1,.cls-2,.cls-3,.cls-4,.cls-5{stroke:#000;stroke-miterlimit:10;}.cls-1,.cls-2,.cls-3,.cls-4{stroke-width:0.25px;}.cls-2{fill:#f59d52;}.cls-3{fill:#d68549;}.cls-4{fill:#af6935;}.cls-5{fill:#35e1ff;stroke-width:0.5px;}.cls-6{font-size:27px;font-family:MuseoModerno-Regular, MuseoModerno;letter-spacing:-0.02em;}</style></defs><g id="Layer_2" data-name="Layer 2"><g id="Layer_1-2" data-name="Layer 1"><path class="cls-1" d="M19.48,15.54c0,9.93-8.38,10.9-8.38,10.9V23.39h.07s0,0,0,0c3.36-.05,6.07-3.45,6.07-7.63s-2.69-7.54-6-7.63H11.1V4.73S19.48,5.6,19.48,15.54Z"/><path class="cls-2" d="M12.66,15.75a1.79,1.79,0,0,1-1.47,1.92.15.15,0,0,1-.09,0v-3.8a.15.15,0,0,1,.09,0A1.8,1.8,0,0,1,12.66,15.75Z"/><path class="cls-3" d="M14.93,15.75c0,2.6-1.67,4.71-3.74,4.78H11.1V17.68h.09a1.79,1.79,0,0,0,1.47-1.92,1.8,1.8,0,0,0-1.47-1.92H11.1V11h.09C13.26,11.05,14.93,13.16,14.93,15.75Z"/><path class="cls-4" d="M17.26,15.75c0,4.18-2.71,7.58-6.07,7.63h-.06l0,0V20.54h.09c2.07-.07,3.74-2.18,3.74-4.78s-1.67-4.7-3.74-4.77H11.1V8.13h.14C14.57,8.21,17.26,11.6,17.26,15.75Z"/><path class="cls-2" d="M11.1,13.85v3.8c-.42-.14-.75-.93-.75-1.9S10.68,14,11.1,13.85Z"/><path class="cls-3" d="M11.1,11v2.87c-.42.14-.75.94-.75,1.9s.33,1.76.75,1.9v2.88c-1.14-.19-2-2.25-2-4.78S10,11.17,11.1,11Z"/><path class="cls-4" d="M11.1,8.13V11c-1.14.19-2,2.25-2,4.77s.9,4.59,2,4.78v2.84c-1.88-.15-3.37-3.5-3.37-7.62S9.22,8.29,11.1,8.13Z"/><path class="cls-5" d="M11.1,26.44a10.86,10.86,0,0,1,0-21.71S6,7.52,6,15.59,11.1,26.44,11.1,26.44Z"/><path class="cls-5" d="M22,15.59A10.85,10.85,0,0,1,11.1,26.44s8.38-1,8.38-10.9S11.1,4.73,11.1,4.73A10.85,10.85,0,0,1,22,15.59Z"/><path class="cls-1" d="M11.1,4.73v3.4c-1.88.16-3.37,3.51-3.37,7.62s1.49,7.47,3.37,7.62v3.07S6,23.72,6,15.59,11.1,4.73,11.1,4.73Z"/><text class="cls-6" transform="translate(27.06 22.95)">openeew</text></g></g></svg>